<svg width="164" height="13" viewBox="0 0 164 13" fill="none" xmlns="http://www.w3.org/2000/svg">
<path d="M8.684 4.504L2.69 6.7L8.684 8.878V11.128L0.116 7.87V5.53L8.684 2.272V4.504ZM46.211 0.399999L42.089 13H38.957L36.185 4.468L33.323 13H30.209L26.069 0.399999H29.093L31.937 9.256L34.907 0.399999H37.607L40.487 9.328L43.421 0.399999H46.211ZM62.4909 6.448C63.2109 6.676 63.7749 7.06 64.1829 7.6C64.5909 8.128 64.7949 8.782 64.7949 9.562C64.7949 10.666 64.3629 11.518 63.4989 12.118C62.6469 12.706 61.3989 13 59.7549 13H53.2389V0.399999H59.3949C60.9309 0.399999 62.1069 0.693999 62.9229 1.282C63.7509 1.87 64.1649 2.668 64.1649 3.676C64.1649 4.288 64.0149 4.834 63.7149 5.314C63.4269 5.794 63.0189 6.172 62.4909 6.448ZM56.1369 2.596V5.566H59.0349C59.7549 5.566 60.3009 5.44 60.6729 5.188C61.0449 4.936 61.2309 4.564 61.2309 4.072C61.2309 3.58 61.0449 3.214 60.6729 2.974C60.3009 2.722 59.7549 2.596 59.0349 2.596H56.1369ZM59.5389 10.804C60.3069 10.804 60.8829 10.678 61.2669 10.426C61.6629 10.174 61.8609 9.784 61.8609 9.256C61.8609 8.212 61.0869 7.69 59.5389 7.69H56.1369V10.804H59.5389ZM72.4026 0.399999H78.1266C79.4946 0.399999 80.7006 0.663999 81.7446 1.192C82.8006 1.708 83.6166 2.44 84.1926 3.388C84.7806 4.336 85.0746 5.44 85.0746 6.7C85.0746 7.96 84.7806 9.064 84.1926 10.012C83.6166 10.96 82.8006 11.698 81.7446 12.226C80.7006 12.742 79.4946 13 78.1266 13H72.4026V0.399999ZM77.9826 10.606C79.2426 10.606 80.2446 10.258 80.9886 9.562C81.7446 8.854 82.1226 7.9 82.1226 6.7C82.1226 5.5 81.7446 4.552 80.9886 3.856C80.2446 3.148 79.2426 2.794 77.9826 2.794H75.3186V10.606H77.9826ZM92.186 6.808H97.28V9.058H92.186V6.808ZM105.087 0.399999H110.811C112.179 0.399999 113.385 0.663999 114.429 1.192C115.485 1.708 116.301 2.44 116.877 3.388C117.465 4.336 117.759 5.44 117.759 6.7C117.759 7.96 117.465 9.064 116.877 10.012C116.301 10.96 115.485 11.698 114.429 12.226C113.385 12.742 112.179 13 110.811 13H105.087V0.399999ZM110.667 10.606C111.927 10.606 112.929 10.258 113.673 9.562C114.429 8.854 114.807 7.9 114.807 6.7C114.807 5.5 114.429 4.552 113.673 3.856C112.929 3.148 111.927 2.794 110.667 2.794H108.003V10.606H110.667ZM134.61 6.448C135.33 6.676 135.894 7.06 136.302 7.6C136.71 8.128 136.914 8.782 136.914 9.562C136.914 10.666 136.482 11.518 135.618 12.118C134.766 12.706 133.518 13 131.874 13H125.358V0.399999H131.514C133.05 0.399999 134.226 0.693999 135.042 1.282C135.87 1.87 136.284 2.668 136.284 3.676C136.284 4.288 136.134 4.834 135.834 5.314C135.546 5.794 135.138 6.172 134.61 6.448ZM128.256 2.596V5.566H131.154C131.874 5.566 132.42 5.44 132.792 5.188C133.164 4.936 133.35 4.564 133.35 4.072C133.35 3.58 133.164 3.214 132.792 2.974C132.42 2.722 131.874 2.596 131.154 2.596H128.256ZM131.658 10.804C132.426 10.804 133.002 10.678 133.386 10.426C133.782 10.174 133.98 9.784 133.98 9.256C133.98 8.212 133.206 7.69 131.658 7.69H128.256V10.804H131.658ZM163.21 5.53V7.87L154.642 11.128V8.878L160.636 6.7L154.642 4.504V2.272L163.21 5.53Z" fill="#FEFEFE"/>
</svg>
